HIERARCHY
ROOT Hips
{
	OFFSET 0.000000 0.000000 0.000000
	CHANNELS 6 Xposition Yposition Zposition Xrotation Yrotation Zrotation
	JOINT LeftUpLeg_virtual
	{
		OFFSET 0.000000 0.000000 0.000000
		CHANNELS 3 Xrotation Yrotation Zrotation
		JOINT LeftUpLeg
		{
			OFFSET 11.394100 -6.187798 -0.413800
			CHANNELS 3 Xrotation Yrotation Zrotation
			JOINT LeftLeg
			{
				OFFSET 0.430247 -32.302673 3.732800
				CHANNELS 3 Xrotation Yrotation Zrotation
				JOINT LeftFoot
				{
					OFFSET -0.430247 -48.264931 -6.423300
					CHANNELS 3 Xrotation Yrotation Zrotation
					JOINT LeftToeBase
					{
						OFFSET 4.230900 -16.068199 23.438400
						CHANNELS 3 Xrotation Yrotation Zrotation
						JOINT LeftToe_End
						{
							OFFSET 4.510700 0.695400 19.974600
							CHANNELS 3 Xrotation Yrotation Zrotation
							End Site
							{
								OFFSET 0 0 0
							}
						}
					}
				}
			}
		}
	}
	JOINT RightUpLeg_virtual
	{
		OFFSET 0.000000 0.000000 0.000000
		CHANNELS 3 Xrotation Yrotation Zrotation
		JOINT RightUpLeg
		{
			OFFSET -11.333700 -6.187798 -0.413800
			CHANNELS 3 Xrotation Yrotation Zrotation
			JOINT RightLeg
			{
				OFFSET -0.430392 -32.302628 3.733000
				CHANNELS 3 Xrotation Yrotation Zrotation
				JOINT RightFoot
				{
					OFFSET 0.430392 -48.264973 -6.423500
					CHANNELS 3 Xrotation Yrotation Zrotation
					JOINT RightToeBase
					{
						OFFSET -4.230900 -16.068199 23.438400
						CHANNELS 3 Xrotation Yrotation Zrotation
						JOINT RightToe_End
						{
							OFFSET -4.510700 0.695400 19.974600
							CHANNELS 3 Xrotation Yrotation Zrotation
							End Site
							{
								OFFSET 0 0 0
							}
						}
					}
				}
			}
		}
	}
	JOINT Spine_virtual
	{
		OFFSET 0.000000 0.000000 0.000000
		CHANNELS 3 Xrotation Yrotation Zrotation
		JOINT Spine
		{
			OFFSET -0.002400 12.777504 0.315300
			CHANNELS 3 Xrotation Yrotation Zrotation
			JOINT Spine1
			{
				OFFSET -0.002067 5.816869 0.032633
				CHANNELS 3 Xrotation Yrotation Zrotation
				JOINT Spine1_split
				{
					OFFSET -0.002067 5.816869 0.032633
					CHANNELS 3 Xrotation Yrotation Zrotation
					JOINT Spine2
					{
						OFFSET -0.002067 5.816869 0.032633
						CHANNELS 3 Xrotation Yrotation Zrotation
						JOINT Neck_virtual
						{
							OFFSET 0.000000 0.000000 0.000000
							CHANNELS 3 Xrotation Yrotation Zrotation
							JOINT Neck
							{
								OFFSET -0.003700 21.199493 -0.826900
								CHANNELS 3 Xrotation Yrotation Zrotation
								JOINT Head
								{
									OFFSET 0.000000 20.442200 4.834800
									CHANNELS 3 Xrotation Yrotation Zrotation
									JOINT HeadTop_End
									{
										OFFSET 0.000000 34.668396 4.968400
										CHANNELS 3 Xrotation Yrotation Zrotation
										End Site
										{
											OFFSET 0 0 0
										}
									}
								}
							}
						}
						JOINT LeftShoulder_virtual
						{
							OFFSET 0.000000 0.000000 0.000000
							CHANNELS 3 Xrotation Yrotation Zrotation
							JOINT LeftShoulder
							{
								OFFSET 3.288150 8.794197 -1.372250
								CHANNELS 3 Xrotation Yrotation Zrotation
								JOINT LeftShoulder_split
								{
									OFFSET 3.288150 8.794197 -1.372250
									CHANNELS 3 Xrotation Yrotation Zrotation
									JOINT LeftArm
									{
										OFFSET 11.953299 -2.279007 -0.146200
										CHANNELS 3 Xrotation Yrotation Zrotation
										JOINT LeftForeArm
										{
											OFFSET 18.448900 0.000000 0.000000
											CHANNELS 3 Xrotation Yrotation Zrotation
											JOINT LeftHand
											{
												OFFSET 29.527798 0.000000 0.000000
												CHANNELS 3 Xrotation Yrotation Zrotation
												End Site
												{
													OFFSET 0 0 0
												}
											}
										}
									}
								}
							}
						}
						JOINT RightShoulder_virtual
						{
							OFFSET 0.000000 0.000000 0.000000
							CHANNELS 3 Xrotation Yrotation Zrotation
							JOINT RightShoulder
							{
								OFFSET -3.249400 8.794197 -1.372250
								CHANNELS 3 Xrotation Yrotation Zrotation
								JOINT RightShoulder_split
								{
									OFFSET -3.249400 8.794197 -1.372250
									CHANNELS 3 Xrotation Yrotation Zrotation
									JOINT RightArm
									{
										OFFSET -11.953299 -2.279007 -0.146200
										CHANNELS 3 Xrotation Yrotation Zrotation
										JOINT RightForeArm
										{
											OFFSET -18.448900 0.000000 0.000000
											CHANNELS 3 Xrotation Yrotation Zrotation
											JOINT RightHand
											{
												OFFSET -29.527802 0.000000 0.000000
												CHANNELS 3 Xrotation Yrotation Zrotation
												End Site
												{
													OFFSET 0 0 0
												}
											}
										}
									}
								}
							}
						}
					}
				}
			}
		}
	}
}
MOTION
Frames: 6
Frame Time: 0.03333333
-76.104874 25.428432 2.322830 0.000000 0.000000 0.000000 -48.518583 9.866703 102.126662 -42.018914 9.929040 4.983192 64.872420 2.453325 -14.363405 -4.999091 -15.226242 -0.574335 -5.349860 -3.530410 8.127892 0.000000 0.000000 0.000000 -56.661193 6.088353 104.595604 -79.487098 6.550858 -42.393331 115.764466 1.898909 2.229357 17.871805 7.277434 21.204505 7.487400 0.069220 4.850038 0.000000 0.000000 0.000000 -49.452499 6.071021 97.749344 13.074519 -0.974292 -6.736033 16.417560 0.147476 -2.605577 0.522292 1.443554 -1.091583 0.000000 0.000000 0.000000 12.179139 0.872837 -2.019130 42.431973 7.818150 -11.666726 -7.271663 12.851663 -2.101874 0.000000 0.000000 0.000000 14.422756 1.946414 -2.617878 0.065328 -3.327990 -12.705970 1.428278 -12.225493 -0.545825 -56.802210 -8.871487 -22.909624 46.624080 -12.459679 10.953198 0.000000 0.000000 0.000000 15.904196 1.860847 -3.104368 4.964766 19.785883 -10.721772 -9.273175 -6.173412 2.778692 -23.102408 -4.564042 16.252290 23.326839 48.780712 -15.552988 0.000000 0.000000 0.000000 
-80.160202 19.852119 3.325024 0.000000 0.000000 0.000000 -51.553844 -1.368174 108.278436 -34.978147 3.340767 -3.483642 61.174678 6.972897 -11.346706 -5.614994 -9.999681 -1.293254 -6.689921 -3.231338 6.335018 0.000000 0.000000 0.000000 -58.142245 -4.466514 109.649548 -76.430240 9.019416 -43.785515 114.860177 -1.991972 3.895260 15.336759 4.505407 18.980824 3.451669 -0.787986 6.588095 0.000000 0.000000 0.000000 -52.559713 -2.917752 102.668064 13.919926 -1.562613 -6.649983 16.389737 -0.302482 -1.602725 0.785245 1.976105 -0.723166 0.000000 0.000000 0.000000 11.914181 0.206171 -0.906210 39.388390 4.717878 -9.039611 -7.092180 5.571417 -2.046849 0.000000 0.000000 0.000000 14.036659 1.349645 -1.351031 -0.295248 -3.926298 -17.231022 -0.021714 -11.227687 -0.347033 -60.933053 -2.948612 -26.390026 47.954949 -14.712019 12.559910 0.000000 0.000000 0.000000 15.970120 1.180621 -2.045949 4.900893 20.093329 -10.436447 -8.965577 -5.942899 2.796448 -19.226619 -3.538234 14.826150 27.208849 46.247293 -20.047660 0.000000 0.000000 0.000000 
-84.269569 16.416077 3.879242 0.000000 0.000000 0.000000 -53.919730 -11.348225 111.862086 -30.581998 -2.674470 -8.390661 57.218083 11.556777 -8.648167 -0.800288 -3.796449 -2.670080 -6.816470 -2.611437 4.452541 0.000000 0.000000 0.000000 -58.731465 -13.169264 112.249583 -69.326618 8.251085 -46.322445 110.375515 -5.457874 4.994057 12.433746 4.074358 18.791498 -0.497981 -0.767452 5.926380 0.000000 0.000000 0.000000 -55.614880 -10.208774 105.405180 15.099547 -1.780548 -5.829522 15.300904 -0.348368 -0.231230 -0.547722 1.738392 0.580604 0.000000 0.000000 0.000000 10.686127 -0.008687 0.408585 34.576432 1.478811 -6.195036 -9.675348 -2.753826 -1.910871 0.000000 0.000000 0.000000 12.487773 1.202587 0.234998 -0.650689 -4.102405 -20.605632 -1.300786 -10.057476 -1.584254 -63.975199 8.784298 -26.614817 50.939961 -19.840053 17.481085 0.000000 0.000000 0.000000 14.689696 0.864191 -0.707779 5.052767 20.229436 -10.533036 -9.642241 -5.945571 3.145468 -16.792852 1.626535 12.584531 25.197592 44.133998 -19.912769 0.000000 0.000000 0.000000 
-88.158180 15.134262 3.791561 0.000000 0.000000 0.000000 -56.805211 -19.107225 112.820928 -28.161382 -6.180664 -9.017280 53.855048 15.645112 -6.709791 9.819510 1.652006 -5.210705 -5.736977 -1.879374 2.777677 0.000000 0.000000 0.000000 -60.351374 -19.564983 112.326982 -59.903320 4.147187 -47.913504 101.805862 -8.753026 5.724650 9.070983 4.542775 19.677645 -1.823525 0.169419 3.309080 0.000000 0.000000 0.000000 -59.184074 -15.712333 105.909412 16.714250 -1.708765 -4.075253 13.544583 -0.338117 1.332473 -1.388867 1.007517 1.741947 0.000000 0.000000 0.000000 8.983002 -0.076966 1.734499 28.590540 -1.372523 -3.626808 -14.262113 -10.516096 -2.405591 0.000000 0.000000 0.000000 10.357634 1.097929 1.932221 -0.909558 -4.418707 -22.195975 -2.008728 -9.049624 -3.482794 -67.111520 22.524593 -23.206046 56.504806 -25.815520 25.933504 0.000000 0.000000 0.000000 12.601587 0.615937 0.736895 5.329615 19.798118 -10.907901 -10.427732 -7.224449 4.126806 -16.542583 8.489814 10.546157 17.726672 41.089243 -15.371167 0.000000 0.000000 0.000000 
-91.648605 15.724930 2.728329 0.000000 0.000000 0.000000 -60.286849 -24.207324 110.897793 -26.968826 -6.363781 -5.946119 51.864908 18.828132 -5.674273 22.377231 4.911310 -7.817567 -4.522491 -1.308465 1.912471 0.000000 0.000000 0.000000 -63.975213 -22.986901 110.590195 -49.873550 -2.149792 -47.304353 90.008260 -11.594756 5.879760 6.253815 5.142008 20.538833 -0.002722 1.500992 0.058725 0.000000 0.000000 0.000000 -63.051846 -19.584847 104.664023 18.656581 -1.311711 -1.433072 11.713832 -0.538862 2.820353 -2.097101 0.868508 2.185188 0.000000 0.000000 0.000000 7.359758 -0.250727 2.956478 22.692117 -3.341900 -1.287420 -19.790379 -16.062722 -3.573732 0.000000 0.000000 0.000000 8.268869 0.789408 3.500419 -1.024873 -4.824038 -21.980548 -2.387998 -8.812705 -4.980948 -70.807000 33.464836 -17.584874 64.528745 -29.596989 36.878674 0.000000 0.000000 0.000000 10.313791 0.195173 2.016471 5.606123 18.423291 -11.627159 -11.311305 -9.707516 5.577733 -17.402272 14.186566 9.632839 7.308707 35.899758 -8.477315 0.000000 0.000000 0.000000 
-94.973274 17.455574 1.515926 0.000000 0.000000 0.000000 -64.405214 -26.030481 107.143607 -26.386684 -4.014594 -0.932334 50.322068 20.967185 -5.024320 31.467501 5.831581 -8.943879 -4.149436 -1.112802 2.217377 0.000000 0.000000 0.000000 -69.714505 -23.616933 108.239217 -40.834385 -8.563480 -44.504341 76.922492 -14.164918 5.793787 5.154958 4.927050 20.406840 3.310273 2.408539 -2.441927 0.000000 0.000000 0.000000 -66.812733 -21.925980 102.053108 20.712141 -0.751710 1.712401 10.200054 -0.977953 3.940935 -2.028751 0.914502 2.062045 0.000000 0.000000 0.000000 6.094184 -0.627381 3.835458 17.513566 -4.588682 1.002676 -24.934299 -18.937857 -4.702153 0.000000 0.000000 0.000000 6.732680 0.236730 4.693571 -1.014653 -5.659021 -20.208629 -2.127483 -8.515827 -5.882937 -73.285976 39.183539 -12.464265 71.774715 -29.092624 46.599188 0.000000 0.000000 0.000000 8.382787 -0.430867 2.963501 5.723459 16.224337 -12.335998 -11.772964 -12.583912 6.778556 -18.422881 17.488911 10.103672 -2.832889 28.924676 -1.988732 0.000000 0.000000 0.000000 
